<svg xmlns="http://www.w3.org/2000/svg" viewBox="0 0 913.29 533.38"><defs><style>.cls-1{fill:#0f0f0f;}.cls-2{fill:#1f1f1f;}</style></defs><title>Asset 3</title><g id="Layer_2" data-name="Layer 2"><g id="Layer_1-2" data-name="Layer 1"><path class="cls-1" d="M322.91,461.67h95a9.42,9.42,0,0,1,6.82,2.75,9,9,0,0,1,2.78,6,.9.9,0,0,0,.9.8h15a.9.9,0,0,0,.91-.92A25.12,25.12,0,0,0,440.75,458a26.82,26.82,0,0,0-9.64-9.58,25.6,25.6,0,0,0-13.2-3.57h-95a26.29,26.29,0,1,0,0,52.57h95a9.28,9.28,0,0,1,6.76,2.88,9.14,9.14,0,0,1,2.87,6.63,9.34,9.34,0,0,1-2.81,6.76,9.19,9.19,0,0,1-6.82,2.88h-95a9.11,9.11,0,0,1-6.63-2.88,9.27,9.27,0,0,1-2.85-6,.89.89,0,0,0-.89-.8h-15a.91.91,0,0,0-.91.92,25.65,25.65,0,0,0,3.55,12.29,26.72,26.72,0,0,0,9.58,9.63,25.23,25.23,0,0,0,13.14,3.57h95a25.79,25.79,0,0,0,15.51-5.08,26.36,26.36,0,0,0,5.78-5.77A25.81,25.81,0,0,0,444.32,507a25.28,25.28,0,0,0-3.57-13.14,26.88,26.88,0,0,0-9.64-9.57,25.6,25.6,0,0,0-13.2-3.57h-95a9.51,9.51,0,0,1,0-19"/><path class="cls-1" d="M126.76,516.61H17.4V445.8a.91.91,0,0,0-.9-.91H.9a.9.9,0,0,0-.9.91v86.68a.9.9,0,0,0,.9.9H126.76a.9.9,0,0,0,.9-.9v-15a.9.9,0,0,0-.9-.9"/><path class="cls-1" d="M279.46,444.89h-15.6a.9.9,0,0,0-.9.91v46.14h0s-.12,17.38-.14,17.47A8.33,8.33,0,0,1,260.4,514a9,9,0,0,1-6.4,2.57H161.47a8.88,8.88,0,0,1-6.14-2.38,8.45,8.45,0,0,1-2.76-6.38V445.8a.9.9,0,0,0-.9-.91h-15.6a.91.91,0,0,0-.9.91v62.05a24.79,24.79,0,0,0,3.44,12.83,26,26,0,0,0,9.27,9.26,24.67,24.67,0,0,0,12.83,3.44h94.12a24.66,24.66,0,0,0,12.82-3.44,26,26,0,0,0,9.27-9.26,24.79,24.79,0,0,0,3.44-12.83V445.8a.91.91,0,0,0-.9-.91"/><path class="cls-1" d="M595.73,444.89H450.22a.91.91,0,0,0-.9.91v15a.91.91,0,0,0,.9.9h64.06v70.81a.9.9,0,0,0,.9.9h15.6a.9.9,0,0,0,.9-.9V462.57a.9.9,0,0,1,.9-.9h63.15a.91.91,0,0,0,.91-.9v-15a.91.91,0,0,0-.91-.91"/><path class="cls-1" d="M625,461.67h126a.9.9,0,0,0,.9-.9v-15a.9.9,0,0,0-.9-.91H607.55a.9.9,0,0,0-.9.91v86.68a.9.9,0,0,0,.9.9H750.93a.9.9,0,0,0,.9-.9v-15a.9.9,0,0,0-.9-.9H625a.9.9,0,0,1-.9-.9V498.36a.9.9,0,0,1,.9-.9h71.92a.9.9,0,0,0,.9-.9v-15a.9.9,0,0,0-.9-.9H625a.9.9,0,0,1-.9-.9V462.57a.9.9,0,0,1,.9-.9"/><path class="cls-1" d="M906.28,489.08a24.51,24.51,0,0,0,5.19-8.14,26.52,26.52,0,0,0,1.82-9.76A26.17,26.17,0,0,0,887,444.89H771.51a.9.9,0,0,0-.9.91v86.68a.9.9,0,0,0,.9.9H787.1a.9.9,0,0,0,.9-.9V498.36a.9.9,0,0,1,.9-.9h97.35a9.63,9.63,0,0,1,9.64,9.51v25.51a.9.9,0,0,0,.9.9h15.6a.9.9,0,0,0,.9-.9V507a25.94,25.94,0,0,0-7-17.89m-12.52-11.14a9.2,9.2,0,0,1-6.76,2.75H788.9a.9.9,0,0,1-.9-.9V462.57a.9.9,0,0,1,.9-.9H887a8.75,8.75,0,0,1,6.76,2.87,9,9,0,0,1,2.76,6.64,9.19,9.19,0,0,1-2.76,6.76"/><path class="cls-2" d="M417.36,277.92a70.23,70.23,0,0,1-70.23-70.23H311.32A168.48,168.48,0,0,0,414.35,363s56.88,27.32,130.83,0a168.48,168.48,0,0,0,103-155.27V155.77H487.37l.22,51.92a70.23,70.23,0,0,1-70.23,70.23"/><polygon class="cls-2" points="487.37 0 311.32 0 311.32 51.92 487.37 51.92 487.37 25.98 487.37 0"/><polygon class="cls-2" points="612.62 51.92 567.79 51.92 523.07 51.92 514.18 51.92 487.37 51.92 487.37 103.85 648.21 103.85 648.21 51.92 621.4 51.92 612.62 51.92"/><rect class="cls-2" x="311.32" y="103.85" width="176.05" height="51.92"/><path class="cls-2" d="M514.18,51.92A27,27,0,0,1,541,26,27,27,0,0,1,514.18.05,27,27,0,0,1,487.37,26a27,27,0,0,1,26.81,25.93"/><path class="cls-2" d="M567.79,51.92A27,27,0,0,1,594.6,26,27,27,0,0,1,567.79.05,27,27,0,0,1,541,26a27,27,0,0,1,26.81,25.93"/><path class="cls-2" d="M621.4,51.92A27,27,0,0,1,648.21,26,27,27,0,0,1,621.4.05,27,27,0,0,1,594.6,26a27,27,0,0,1,26.8,25.93"/></g></g></svg>