<svg xmlns="http://www.w3.org/2000/svg" width="49" height="54.315" viewBox="0 0 49 54.315">
  <g id="Group_170" data-name="Group 170" transform="translate(-1288 -441)">
    <rect id="Rectangle_84" data-name="Rectangle 84" width="49" height="49" transform="translate(1288 446)" fill="none"/>
    <g id="Group_160" data-name="Group 160" transform="translate(1289.426 441)">
      <path id="Path_566" data-name="Path 566" d="M171.765,202.42a1.939,1.939,0,0,1-1.326-2.2c.02-.24-.008-.483.01-.724a.714.714,0,0,1,.748-.737.7.7,0,0,1,.689.745c.017.361.006.724.008,1.086,0,.255.114.384.386.383,1.162-.006,2.324-.009,3.485,0,.367,0,.417-.207.416-.5,0-.89,0-1.78,0-2.671a.736.736,0,0,1,.447-.765.7.7,0,0,1,.985.608c.032,1.1.04,2.2-.022,3.3a1.715,1.715,0,0,1-1.294,1.469Z" transform="translate(-132.124 -148.105)" fill="#171717"/>
      <path id="Path_567" data-name="Path 567" d="M-130.241,202.445a1.988,1.988,0,0,1-1.294-2.223c.058-.78.007-1.568.013-2.353,0-.543.271-.857.713-.858s.726.322.732.853c.009.875.014,1.75,0,2.625-.007.36.1.519.485.512q1.651-.029,3.3,0c.381.006.515-.142.493-.509a8.829,8.829,0,0,1,0-1,.709.709,0,0,1,.722-.714.707.707,0,0,1,.714.722,11.641,11.641,0,0,1-.005,1.357,1.787,1.787,0,0,1-1.346,1.582Z" transform="translate(132.76 -148.13)" fill="#171717"/>
      <path id="Path_568" data-name="Path 568" d="M-137.945-42.162c-.82-.181-1.553-.333-2.28-.506a1.8,1.8,0,0,1-1.382-2.1,1.717,1.717,0,0,1,1.54-1.694q.926-.153,1.85-.324a1.827,1.827,0,0,1,2.378,1.057c.07-.134.135-.242.185-.358.5-1.164,1-2.332,1.509-3.493a5.989,5.989,0,0,1,4.987-3.691,77.648,77.648,0,0,1,12.072-.763,65.725,65.725,0,0,1,10.363.866,5.626,5.626,0,0,1,4.317,3.362c.545,1.178,1.033,2.383,1.548,3.575.069.16.148.315.262.556a1.642,1.642,0,0,1,1.39-1.185,7.024,7.024,0,0,1,1.4.149c.483.07.963.164,1.444.25a1.716,1.716,0,0,1,1.521,1.712,1.792,1.792,0,0,1-1.356,2.078c-.739.187-1.487.337-2.3.518.23.352.429.686.658,1a9.035,9.035,0,0,1,1.74,5.693c-.049,2.535,0,5.072-.017,7.607a4.584,4.584,0,0,1-2.766,4.522,12.39,12.39,0,0,1-2.427.588,3.093,3.093,0,0,1-.641.016q-16.29,0-32.581,0a6.982,6.982,0,0,1-3.034-.576,4.512,4.512,0,0,1-2.756-4.212c-.066-3-.049-6.007,0-9.01a7.624,7.624,0,0,1,1.419-4.192C-138.585-41.18-138.284-41.648-137.945-42.162Zm40.316,13.508h-.626q-19.139,0-38.277,0a3.281,3.281,0,0,1-.639-.037.654.654,0,0,1-.561-.721.648.648,0,0,1,.579-.661,4.111,4.111,0,0,1,.64-.029h38.944v-.548c0-1.57-.044-3.142.011-4.71a7.756,7.756,0,0,0-1.534-5.053,30.151,30.151,0,0,1-4.053-7.417c-.174-.466-.374-.924-.588-1.374a4.251,4.251,0,0,0-3.423-2.571c-2.44-.3-4.89-.584-7.345-.72a74.676,74.676,0,0,0-14.1.6c-1.546.208-2.974.672-3.726,2.067-.864,1.6-1.5,3.324-2.232,5,0,.01.01.028.035.09h30.712a3.789,3.789,0,0,1,.5.01.667.667,0,0,1,.628.618.662.662,0,0,1-.495.768,1.672,1.672,0,0,1-.5.051q-2.111.005-4.222,0-13.516,0-27.033-.01a.822.822,0,0,0-.8.433c-.632,1-1.294,1.977-1.953,2.957a6.324,6.324,0,0,0-1.172,3.475q-.052,4.415,0,8.831a3.238,3.238,0,0,0,2.669,3.244,7.273,7.273,0,0,0,1.634.178q16.339.015,32.678.007c.184,0,.368,0,.55-.01C-98.57-24.365-97.292-26.116-97.629-28.654Zm1.316-15.9c.062-.3-.067-.458-.394-.507-.707-.106-1.409-.243-2.116-.347a.385.385,0,0,0-.321.141,9.287,9.287,0,0,0-.505,1.107.513.513,0,0,0,.594.634c.772-.167,1.543-.342,2.316-.506C-96.455-44.092-96.244-44.2-96.313-44.555Zm-43.818.014c-.056.312.109.439.389.5.744.157,1.483.338,2.229.481a.764.764,0,0,0,.547-.088.485.485,0,0,0,.115-.68c-.157-.273-.238-.589-.4-.855a.516.516,0,0,0-.409-.2c-.679.086-1.351.221-2.028.322C-140.017-45.019-140.2-44.887-140.131-44.54Z" transform="translate(141.61 72.604)" fill="#171717"/>
      <path id="Path_578" data-name="Path 578" d="M-24.318,83.678c-2.885-.159-5.1-.286-7.312-.4a1.02,1.02,0,0,1-.977-.657c-.553-1.221-1.14-2.427-1.706-3.641-.359-.77-.039-1.262.805-1.206,2.257.15,4.513.312,6.769.475a53.17,53.17,0,0,0,7.593-.168c1.323-.093,2.645-.213,3.969-.3.9-.063,1.228.419.845,1.238-.568,1.214-1.148,2.423-1.709,3.64a.879.879,0,0,1-.771.6C-19.537,83.413-22.262,83.564-24.318,83.678Zm-8.261-4.413c.411.877.762,1.641,1.134,2.395a.429.429,0,0,0,.313.178c2.047.129,4.094.336,6.142.342,2.228.006,4.456-.212,6.686-.259a1.368,1.368,0,0,0,1.51-1.036,14.326,14.326,0,0,1,.738-1.617A70.569,70.569,0,0,1-32.579,79.265Z" transform="translate(47.709 -44.202)" fill="#171717"/>
      <path id="Path_579" data-name="Path 579" d="M138.37,73.33a2.342,2.342,0,0,1-2.283,2.609c-1.837.252-3.672.521-5.508.781-.149.021-.3.039-.45.05a.713.713,0,0,1-.737-1.119c.549-1,1.158-1.977,1.7-2.984a2.518,2.518,0,0,1,2.359-1.362,26.782,26.782,0,0,0,2.75-.23c1.643-.218,2.014.768,2.163,1.8A3.209,3.209,0,0,1,138.37,73.33ZM131.3,75.067a.989.989,0,0,0,.215.045c1.581-.22,3.165-.428,4.741-.68a.807.807,0,0,0,.547-.456,3.534,3.534,0,0,0,.082-1.154.455.455,0,0,0-.337-.294c-1.158.073-2.314.175-3.469.282a.59.59,0,0,0-.4.161C132.217,73.649,131.775,74.344,131.3,75.067Z" transform="translate(-95.931 -38.349)" fill="#171717"/>
      <path id="Path_580" data-name="Path 580" d="M-103.161,71.137c1.08.113,2.158.241,3.239.333a1.457,1.457,0,0,1,1.212.673c.739,1.207,1.485,2.411,2.177,3.645.326.581-.108,1.125-.8,1.038-1.436-.18-2.868-.392-4.3-.591-.582-.081-1.164-.167-1.747-.241a2.153,2.153,0,0,1-2.092-1.958,4.666,4.666,0,0,1,.076-1.694,1.446,1.446,0,0,1,1.693-1.214c.181.009.361.028.541.042Zm4.722,4.084c-.433-.687-.814-1.244-1.143-1.831a1.088,1.088,0,0,0-.995-.559c-.933-.059-1.864-.134-2.8-.208-.672-.054-.732,0-.733.683a2.951,2.951,0,0,0,.015.361c.073.6.29.806.892.884.329.042.657.091.985.137Z" transform="translate(109.879 -38.419)" fill="#171717"/>
      <g id="Ellipse_36" data-name="Ellipse 36" transform="translate(18.574)" fill="#fff" stroke="#171717" stroke-width="1">
        <circle cx="12.5" cy="12.5" r="12.5" stroke="none"/>
        <circle cx="12.5" cy="12.5" r="12" fill="none"/>
      </g>
      <g id="Group_175" data-name="Group 175" transform="translate(179.774 159.396)">
        <path id="Path_618" data-name="Path 618" d="M-155.2-152.448c.038-.136.067-.275.115-.408a1.848,1.848,0,0,1,1.732-1.246c1.891-.008,3.782,0,5.673,0a.617.617,0,0,1,.645.624.612.612,0,0,1-.643.625c-.788.006-1.576,0-2.364,0q-1.588,0-3.176,0a.623.623,0,0,0-.617.3,1.052,1.052,0,0,0-.1.465q-.009,3.642,0,7.283,0,1.9,0,3.8a.7.7,0,0,0,.216.573.745.745,0,0,0,.523.159h5.407a1.4,1.4,0,0,1,.279.016.617.617,0,0,1,.478.669.618.618,0,0,1-.567.563c-.039,0-.079,0-.118,0q-2.777,0-5.555,0a1.874,1.874,0,0,1-1.874-1.474c-.015-.061-.031-.122-.047-.182Z" transform="translate(0)" fill="#2435da"/>
        <path id="Path_619" data-name="Path 619" d="M-11.164-63.995h-.214c-2.339,0-4.679,0-7.018,0a.656.656,0,0,1-.7-.526.627.627,0,0,1,.55-.724c.073-.006.148,0,.221,0h7.156c-.062-.066-.1-.107-.138-.146q-1.262-1.246-2.524-2.49a.658.658,0,0,1-.228-.648.623.623,0,0,1,.979-.363,1.5,1.5,0,0,1,.154.138l3.659,3.612a.646.646,0,0,1,0,1.047l-3.68,3.633a.632.632,0,0,1-.887.108.619.619,0,0,1-.106-.88,1.736,1.736,0,0,1,.141-.151l2.5-2.47C-11.26-63.893-11.228-63.929-11.164-63.995Z" transform="translate(-131.069 -81.946)" fill="#2435da"/>
      </g>
    </g>
  </g>
</svg>
