<svg xmlns="http://www.w3.org/2000/svg" width="21.121" height="23.05" viewBox="0 0 21.121 23.05">
  <g id="Group_154" data-name="Group 154" transform="translate(193.954 208)">
    <path id="Path_560" data-name="Path 560" d="M-184.772-123.655c-.265-.072-.539-.122-.795-.218a3.544,3.544,0,0,1-2.277-2.509c-.012-.043-.027-.086-.048-.154h-.234c-1.388,0-2.776.007-4.164,0a1.671,1.671,0,0,1-1.662-1.775,1.658,1.658,0,0,1,.6-1.192,6.393,6.393,0,0,0,2.276-4.968c.008-.848,0-1.7,0-2.543a6.715,6.715,0,0,1,5.821-6.741,7.443,7.443,0,0,1,1.189-.054.735.735,0,0,1,.774.589.718.718,0,0,1-.789.85,4.962,4.962,0,0,0-2.691.585,5.175,5.175,0,0,0-2.859,4.643c-.028.884,0,1.771-.006,2.656a7.848,7.848,0,0,1-2.71,6.022c-.1.091-.218.176-.148.338s.2.154.342.154q7.8,0,15.6-.007a.467.467,0,0,0,.333-.152c.1-.138-.034-.242-.137-.333a7.783,7.783,0,0,1-2.674-5.259,17.416,17.416,0,0,1-.026-1.8.678.678,0,0,1,.627-.653.7.7,0,0,1,.773.539,2.1,2.1,0,0,1,.031.447,9,9,0,0,0,.192,2.347,6.437,6.437,0,0,0,2.049,3.313,1.681,1.681,0,0,1,.536,1.884,1.677,1.677,0,0,1-1.613,1.112q-2.071.005-4.141,0c-.158,0-.223.036-.273.2a3.544,3.544,0,0,1-2.959,2.641,1,1,0,0,0-.126.04Zm-1.589-2.871a2.118,2.118,0,0,0,2.081,1.428,2.092,2.092,0,0,0,1.929-1.428Z" transform="translate(0 -61.295)"/>
    <path id="Path_561" data-name="Path 561" d="M67.115-208c.277.06.557.106.829.181a4.806,4.806,0,0,1,3.49,5.043,4.809,4.809,0,0,1-4.117,4.329,4.806,4.806,0,0,1-5.413-4,4.808,4.808,0,0,1,3.876-5.466c.131-.024.26-.055.39-.083Zm2.891,4.8a3.357,3.357,0,0,0-3.362-3.361,3.366,3.366,0,0,0-3.356,3.372,3.359,3.359,0,0,0,3.355,3.347A3.351,3.351,0,0,0,70.006-203.2Z" transform="translate(-244.279)"/>
  </g>
</svg>
